<?xml version="1.0" standalone="no"?>
<!DOCTYPE svg PUBLIC "-//W3C//DTD SVG 20010904//EN"
 "http://www.w3.org/TR/2001/REC-SVG-20010904/DTD/svg10.dtd">
<svg version="1.0" xmlns="http://www.w3.org/2000/svg"
 width="300.000000pt" height="300.000000pt" viewBox="0 0 300.000000 300.000000"
 preserveAspectRatio="xMidYMid meet">
<metadata>
Created by potrace 1.11, written by Peter Selinger 2001-2013
</metadata>
<g transform="translate(0.000000,300.000000) scale(0.100000,-0.100000)"
fill="#000000" stroke="none">
<path d="M1467 2974 c-1 -1 -38 -4 -82 -7 -44 -4 -90 -8 -101 -11 -12 -2 -38
-7 -59 -10 -102 -17 -313 -92 -421 -152 -190 -104 -387 -278 -500 -440 -18
-27 -39 -55 -45 -62 -6 -8 -38 -66 -70 -130 -56 -109 -111 -259 -124 -334 -3
-18 -8 -40 -10 -48 -5 -18 -12 -60 -20 -120 -8 -55 -8 -303 -1 -327 2 -10 7
-45 11 -78 4 -32 11 -67 16 -76 5 -10 9 -26 9 -36 0 -26 43 -155 79 -241 139
-323 402 -596 721 -748 52 -25 103 -49 112 -55 10 -5 25 -9 33 -9 8 0 23 -4
33 -9 24 -13 162 -47 252 -62 132 -21 379 -15 497 12 26 6 58 13 70 15 12 2
33 8 45 13 13 5 25 9 28 9 11 1 50 15 138 49 168 66 334 176 476 318 200 199
327 421 395 690 19 76 24 100 40 220 13 99 2 350 -19 424 -5 17 -9 34 -9 36 1
37 -61 225 -107 325 -19 41 -69 126 -111 190 -241 360 -642 602 -1075 646 -56
6 -197 11 -201 8z"/>
</g>
</svg>
